M48
;Layer_Color=9474304
;FILE_FORMAT=2:5
INCH
;TYPE=PLATED
T01F00S00C0.02500
T02F00S00C0.03000
T03F00S00C0.03150
T04F00S00C0.03400
T05F00S00C0.03937
T06F00S00C0.04000
T07F00S00C0.04016
T08F00S00C0.04300
T09F00S00C0.11811
%
T01
X0402000Y0553000
X0422000
Y0602500
X0402000
T02
X0400000Y0278500
X0410000
X0435000Y0276500
X0445000
T03
X0324500Y0249500
X0334500
X0359000Y0248500
X0369000
T04
X0526000Y0496500
Y0518000
X0569800
Y0496500
X0568000Y0586012
X0546000
Y0630500
X0568000
T05
X0318579Y0201067
X0328421
X0357079
X0366921
X0286921Y0200567
X0277079
X0280933Y0241579
Y0251421
Y0287579
Y0297421
X0281000Y0331657
Y0341500
X0280933Y0376579
Y0386421
Y0422579
Y0432421
Y0465579
Y0475421
T06
X0522000Y0204500
X0556500Y0217500
X0578000Y0232500
X0562000Y0276500
X0556000Y0294500
X0525500Y0293583
X0502100Y0298583
X0446000Y0303500
X0436000
X0410000Y0305500
X0400000
X0370500Y0307500
X0360500
X0334500Y0306500
X0324500
X0334500Y0289600
Y0278000
X0324500
X0360500Y0278500
X0370500
X0420000Y0226500
X0418000Y0206500
X0454000
X0445393Y0228975
X0282000Y0222500
X0298916Y0296116
X0325000Y0334500
X0335000
Y0361500
X0325000
X0361000
X0371000
Y0335500
X0361000
X0400000Y0334000
X0410000
X0409500Y0361000
X0399500
X0435500Y0359000
X0445500
X0446000Y0332000
X0436000
X0455900Y0412400
X0413300Y0448300
X0409200Y0462700
X0396787Y0465000
X0383200Y0459800
X0379600Y0444000
X0336000Y0459800
X0326000
X0313800Y0460000
Y0428500
X0423300Y0460000
X0474200Y0413900
X0546200Y0459700
X0564000Y0442500
X0544000Y0344500
X0536000Y0318500
X0562000Y0316500
X0570000Y0537500
X0569800Y0558500
X0526000
X0526200Y0537500
X0495800Y0538500
Y0558500
X0498000Y0586012
X0522000
X0516000Y0572500
X0496000Y0518500
X0495800Y0496500
X0452000
X0452200Y0518500
X0452000Y0538500
Y0558500
X0408000Y0532500
X0364200
X0361500Y0553500
X0356900Y0567800
X0340500Y0554000
X0343618Y0546487
X0318500Y0554000
X0322300Y0533000
X0314000Y0520500
X0330000Y0498500
X0362700Y0497100
X0383700Y0471400
X0424200Y0471100
X0382000Y0553000
X0379300Y0585200
X0382000Y0602500
X0389800Y0612800
X0360200Y0612300
X0361500Y0603000
X0340500Y0603500
X0318500
X0394000Y0579000
X0299000Y0603500
X0281500
Y0554000
X0299000
X0302000Y0522500
X0278500Y0533000
X0498000Y0630500
Y0652012
Y0670300
Y0696500
X0522000
X0546000
X0568000
Y0652012
X0546000
X0522000
Y0630500
T07
X0471000Y0192500
X0496000
X0506000
X0516000
X0526000
X0536000
X0546000
X0556000
X0566000
X0580000Y0253583
Y0263583
Y0273583
Y0283583
Y0293583
Y0303583
X0480000
Y0293583
Y0283583
Y0273583
Y0263583
Y0253583
X0461000Y0192500
X0451000
X0441000
X0431000
X0421000
X0411000
X0401000
X0480000Y0313583
Y0323583
Y0333583
Y0343583
Y0353583
Y0363583
Y0373583
Y0383583
Y0393583
X0580000
Y0383583
Y0373583
Y0363583
Y0353583
Y0343583
Y0333583
Y0323583
Y0313583
T08
X0282000Y0630900
X0308000
Y0696500
X0282000
X0334000
X0360000
X0384000
X0410000
X0436000
X0460000
Y0630900
X0436000
X0410000
X0384000
X0360000
X0334000
T09
X0586000Y0182500
X0256000
Y0712500
X0586000
M30
