G04*
G04 #@! TF.GenerationSoftware,Altium Limited,Altium Designer,25.8.1 (18)*
G04*
G04 Layer_Physical_Order=2*
G04 Layer_Color=16711680*
%FSLAX25Y25*%
%MOIN*%
G70*
G04*
G04 #@! TF.SameCoordinates,264A6FA4-DEAC-4DB1-97A0-32F326CD1466*
G04*
G04*
G04 #@! TF.FilePolarity,Positive*
G04*
G01*
G75*
%ADD20R,0.06000X0.06000*%
%ADD21R,0.05400X0.05400*%
%ADD22R,0.05000X0.05000*%
%ADD23R,0.06181X0.06181*%
%ADD25C,0.06181*%
%ADD26C,0.06000*%
%ADD27C,0.05000*%
%ADD28C,0.06102*%
%ADD30C,0.04500*%
%ADD31R,0.05400X0.05400*%
%ADD32C,0.06300*%
%ADD33R,0.06300X0.06300*%
%ADD35C,0.05400*%
%ADD36R,0.06102X0.06102*%
%ADD39R,0.06102X0.06102*%
%ADD40R,0.06000X0.06000*%
%ADD41C,0.01500*%
%ADD42C,0.07874*%
%ADD43R,0.07874X0.07874*%
%ADD44C,0.14000*%
%ADD45R,0.05118X0.05118*%
%ADD46C,0.05118*%
D20*
X280200Y365000D02*
D03*
X190000Y131000D02*
D03*
X280000Y386000D02*
D03*
X154000Y133000D02*
D03*
X206000Y366000D02*
D03*
X189500Y186500D02*
D03*
X206000Y324000D02*
D03*
X190000Y159500D02*
D03*
X206000Y386000D02*
D03*
X153500Y188500D02*
D03*
X118200Y360000D02*
D03*
X115000Y189000D02*
D03*
X32500Y360500D02*
D03*
X206200Y346000D02*
D03*
X78500Y105500D02*
D03*
X114500Y106000D02*
D03*
X154000Y161500D02*
D03*
X79000Y189000D02*
D03*
X114500Y135000D02*
D03*
X78500Y134000D02*
D03*
X115000Y163000D02*
D03*
X79000Y162000D02*
D03*
D21*
X280000Y345500D02*
D03*
Y324000D02*
D03*
D22*
X154000Y106000D02*
D03*
X189000Y104000D02*
D03*
D23*
X250000Y20000D02*
D03*
X155000D02*
D03*
D25*
X280000D02*
D03*
X185000D02*
D03*
X270000D02*
D03*
X175000D02*
D03*
X260000D02*
D03*
X165000D02*
D03*
X290000D02*
D03*
X300000D02*
D03*
X310000D02*
D03*
X320000D02*
D03*
X225000D02*
D03*
X215000D02*
D03*
X205000D02*
D03*
X195000D02*
D03*
D26*
X89000Y189000D02*
D03*
X199500Y186500D02*
D03*
X200000Y131000D02*
D03*
Y159500D02*
D03*
X163500Y188500D02*
D03*
X164000Y133000D02*
D03*
Y161500D02*
D03*
X323800Y386000D02*
D03*
X249800Y324000D02*
D03*
X250000Y346000D02*
D03*
X249800Y366000D02*
D03*
Y386000D02*
D03*
X324000Y365000D02*
D03*
X88500Y105500D02*
D03*
X124500Y106000D02*
D03*
X162000Y360000D02*
D03*
X76300Y360500D02*
D03*
X115500Y430500D02*
D03*
Y381000D02*
D03*
X136000Y380500D02*
D03*
X125000Y189000D02*
D03*
X94500Y381500D02*
D03*
X53000D02*
D03*
X35500D02*
D03*
X72500D02*
D03*
X136000Y430000D02*
D03*
X322000Y524000D02*
D03*
X252000Y458000D02*
D03*
X276000Y524000D02*
D03*
Y458000D02*
D03*
X252000Y524000D02*
D03*
X300000D02*
D03*
X94500Y431000D02*
D03*
X72500D02*
D03*
X53000D02*
D03*
X35500D02*
D03*
X124500Y135000D02*
D03*
X88500Y134000D02*
D03*
X125000Y163000D02*
D03*
X89000Y162000D02*
D03*
X84000Y326000D02*
D03*
X68000Y348000D02*
D03*
X56000Y350000D02*
D03*
X270000Y400000D02*
D03*
X318000Y270000D02*
D03*
X52916Y123616D02*
D03*
X97618Y373987D02*
D03*
X332000Y60000D02*
D03*
X310000Y122000D02*
D03*
X316000Y144000D02*
D03*
X290000Y146000D02*
D03*
X174000Y54000D02*
D03*
X300200Y287200D02*
D03*
X298000Y172000D02*
D03*
X316000Y104000D02*
D03*
X279500Y121083D02*
D03*
X310500Y45000D02*
D03*
X209900Y239900D02*
D03*
X167300Y275800D02*
D03*
X137700Y298900D02*
D03*
X67800Y287500D02*
D03*
Y256000D02*
D03*
X256100Y126083D02*
D03*
X276000Y32000D02*
D03*
X208000Y34000D02*
D03*
X199393Y56475D02*
D03*
X172000Y34000D02*
D03*
X36000Y50000D02*
D03*
X80000Y287300D02*
D03*
X90000D02*
D03*
X114200Y439800D02*
D03*
X88500Y117100D02*
D03*
X110900Y395300D02*
D03*
X178200Y298600D02*
D03*
X133300Y412700D02*
D03*
X228200Y241400D02*
D03*
X150787Y292500D02*
D03*
X133600Y271500D02*
D03*
X252000Y497800D02*
D03*
X116700Y324600D02*
D03*
X143800Y440300D02*
D03*
X148000Y406500D02*
D03*
X163200Y290200D02*
D03*
X137200Y287300D02*
D03*
X177300Y287500D02*
D03*
D27*
X199000Y104000D02*
D03*
X164000Y106000D02*
D03*
D28*
X120921Y28567D02*
D03*
X34933Y302921D02*
D03*
Y213921D02*
D03*
Y259921D02*
D03*
X82421Y28567D02*
D03*
X35000Y169000D02*
D03*
X34933Y124921D02*
D03*
X40921Y28067D02*
D03*
X34933Y78921D02*
D03*
D30*
X156000Y430000D02*
D03*
X176000D02*
D03*
Y380500D02*
D03*
X156000D02*
D03*
D31*
X300000Y413512D02*
D03*
X322000D02*
D03*
D32*
X214000Y524000D02*
D03*
X190000D02*
D03*
X164000D02*
D03*
X138000D02*
D03*
X114000D02*
D03*
X88000D02*
D03*
X62000D02*
D03*
X36000D02*
D03*
D33*
X214000Y458400D02*
D03*
X190000D02*
D03*
X164000D02*
D03*
X138000D02*
D03*
X114000D02*
D03*
X88000D02*
D03*
X62000D02*
D03*
X36000D02*
D03*
D35*
X322000Y458000D02*
D03*
X300000D02*
D03*
X323800Y324000D02*
D03*
Y345500D02*
D03*
D36*
X111079Y28567D02*
D03*
X72579D02*
D03*
X31079Y28067D02*
D03*
D39*
X34933Y69079D02*
D03*
Y115079D02*
D03*
X35000Y159157D02*
D03*
X34933Y204079D02*
D03*
Y250079D02*
D03*
Y293079D02*
D03*
D40*
X252000Y413512D02*
D03*
X276000D02*
D03*
X322000Y479512D02*
D03*
X276000D02*
D03*
X252000D02*
D03*
X300000D02*
D03*
D41*
X79063Y342439D02*
X79063Y342440D01*
X84000Y310700D02*
Y326000D01*
X46450Y338963D02*
X53663Y331750D01*
X86382D01*
X92000Y326132D01*
Y310000D02*
Y326132D01*
X64000Y342000D02*
X78624D01*
X56000Y350000D02*
X64000Y342000D01*
X68000Y348000D02*
Y358000D01*
X50250Y375750D02*
X68000Y358000D01*
X106059Y372861D02*
X106498Y373300D01*
X79095Y342471D02*
X79125Y342505D01*
Y342505D02*
X106027Y372829D01*
X78624Y342000D02*
X79063Y342439D01*
X106498Y373300D02*
X180700D01*
X79063Y342440D02*
X79095Y342471D01*
X106027Y372829D02*
X106059Y372861D01*
X189500Y369500D02*
X206000Y386000D01*
X109500Y369500D02*
X189500D01*
X104000Y364000D02*
X109500Y369500D01*
X104000Y316200D02*
X118000Y302200D01*
X104000Y316200D02*
Y364000D01*
X108000Y360000D02*
X114000Y366000D01*
X108000Y333300D02*
X116700Y324600D01*
X108000Y333300D02*
Y360000D01*
X114000Y366000D02*
X186870D01*
X195235Y357635D01*
X61250Y336000D02*
X92000D01*
X49950Y347300D02*
X61250Y336000D01*
X92000D02*
X98000Y330000D01*
X270000Y393979D02*
Y400000D01*
X200500Y393100D02*
X269121D01*
X270000Y393979D01*
X180700Y373300D02*
X200500Y393100D01*
X297300Y249300D02*
X318000Y270000D01*
Y177083D02*
X334000Y161083D01*
X318000Y177083D02*
Y270000D01*
X297300Y172700D02*
Y249300D01*
Y172700D02*
X298000Y172000D01*
X53132Y123400D02*
X77900D01*
X52916Y123616D02*
X53132Y123400D01*
X172000Y198500D02*
X199600Y226100D01*
X154000Y161500D02*
X172000Y179500D01*
Y198500D01*
X97618Y373987D02*
X102495Y377595D01*
X116700Y391800D01*
X284000Y490000D02*
X293629Y480371D01*
X284000Y490000D02*
Y516132D01*
X293629Y480371D02*
X299141D01*
X284000Y516132D02*
X299868Y532000D01*
X100681Y474152D02*
X116529Y490000D01*
X284000D01*
X299141Y480371D02*
X300000Y479512D01*
X299868Y532000D02*
X328000D01*
X336600Y523400D01*
Y410300D02*
Y523400D01*
X22000Y172157D02*
Y361400D01*
Y172157D02*
X35000Y159157D01*
X22000Y361400D02*
X28500Y367900D01*
X16000Y134012D02*
Y364900D01*
X23350Y372250D01*
X16000Y134012D02*
X34933Y115079D01*
X46000Y145900D02*
X57900Y134000D01*
X34933Y204079D02*
X46000Y193012D01*
Y145900D02*
Y193012D01*
X40900Y130888D02*
Y165100D01*
X37881Y168119D02*
X40900Y165100D01*
X34933Y124921D02*
X40900Y130888D01*
X28000Y176000D02*
X35881Y168119D01*
X37881D01*
X34933Y124921D02*
X35814Y124041D01*
X38072D01*
X38113Y124000D02*
X40000D01*
X38072Y124041D02*
X38113Y124000D01*
X40000D02*
X44000Y120000D01*
Y87988D02*
Y120000D01*
X34933Y78921D02*
X44000Y87988D01*
X140100Y282000D02*
X168200D01*
X171550Y285350D01*
X137200Y284900D02*
X140100Y282000D01*
X124000Y354200D02*
X130000Y348200D01*
Y281400D02*
X133900Y277500D01*
X130000Y281400D02*
Y348200D01*
X137700Y340500D01*
X124000Y265900D02*
Y354200D01*
X118200Y360000D02*
X124000Y354200D01*
Y265900D02*
X131800Y258100D01*
X105000Y84000D02*
X113000Y76000D01*
X66000Y78000D02*
X72000Y84000D01*
X105000D01*
X66000Y35146D02*
X72579Y28567D01*
X66000Y35146D02*
Y78000D01*
X155591Y107591D02*
Y109591D01*
X160000Y114000D02*
X172000D01*
X154000Y106000D02*
X155591Y107591D01*
Y109591D02*
X160000Y114000D01*
X174000Y54000D02*
Y112000D01*
X172000Y114000D02*
X174000Y112000D01*
X176000Y120000D02*
X180250Y115750D01*
Y82231D02*
Y115750D01*
X156000Y120000D02*
X176000D01*
X180250Y115750D02*
Y195750D01*
X148000Y103250D02*
Y112000D01*
X156000Y120000D01*
X134000Y89250D02*
X148000Y103250D01*
X92000Y310000D02*
X108000Y294000D01*
X98000Y313615D02*
X112750Y298865D01*
X98000Y313615D02*
Y330000D01*
X108000Y253062D02*
Y294000D01*
Y253062D02*
X134250Y226812D01*
X118000Y265100D02*
Y302200D01*
Y265100D02*
X153500Y229600D01*
X258500Y268500D02*
X300000Y310000D01*
X136600Y268500D02*
X258500D01*
X300000Y310000D02*
X330000D01*
X263500Y287500D02*
X302000Y326000D01*
X177300Y287500D02*
X263500D01*
X302000Y326000D02*
X320971D01*
X322971Y324000D02*
X323800D01*
X320971Y326000D02*
X322971Y324000D01*
X323800Y345500D02*
X332500D01*
X338000Y340000D01*
Y318000D02*
Y340000D01*
X330000Y310000D02*
X338000Y318000D01*
X265000Y298600D02*
X314000Y347600D01*
Y387700D01*
X178200Y298600D02*
X265000D01*
X268488Y472000D02*
X276000Y479512D01*
X249623Y472000D02*
X268488D01*
X245623Y476000D02*
X249623Y472000D01*
X114000Y476000D02*
X245623D01*
X104600Y466600D02*
X114000Y476000D01*
X104600Y454600D02*
Y466600D01*
X100681Y459181D02*
Y474152D01*
X73936Y423936D02*
X104600Y454600D01*
X60064Y423936D02*
X73936D01*
X104862Y448712D02*
X108100Y451950D01*
X104862Y441362D02*
Y448712D01*
X108100Y451950D02*
Y463421D01*
X108979Y464300D02*
X306788D01*
X108100Y463421D02*
X108979Y464300D01*
X334000Y221083D02*
X346000Y209083D01*
Y29800D02*
Y209083D01*
X325200Y9000D02*
X346000Y29800D01*
X339622Y124917D02*
X342000Y122539D01*
X332000Y60000D02*
X342000Y70000D01*
Y122539D01*
X334000Y130540D02*
X339622Y124917D01*
X334000Y130540D02*
Y131083D01*
X310000Y122000D02*
X323083D01*
X334000Y111083D01*
X290417Y132000D02*
X320000D01*
X279500Y121083D02*
X290417Y132000D01*
X320000D02*
X329698Y122302D01*
X332780D02*
X334000Y121083D01*
X329698Y122302D02*
X332780D01*
X300000Y156000D02*
X327934D01*
X290000Y146000D02*
X300000Y156000D01*
X327934D02*
X332852Y151083D01*
X334000D01*
X317218Y144000D02*
X320135Y141083D01*
X316000Y144000D02*
X317218D01*
X320135Y141083D02*
X334000D01*
X286000Y150000D02*
Y273000D01*
Y150000D02*
X290000Y146000D01*
X286000Y273000D02*
X300200Y287200D01*
X321250Y103833D02*
X334000Y91083D01*
X316000Y104000D02*
X316167Y103833D01*
X321250D01*
X308000Y99712D02*
Y111121D01*
X308879Y112000D02*
X323083D01*
X308000Y111121D02*
X308879Y112000D01*
X323083D02*
X334000Y101083D01*
X308000Y99712D02*
X321317Y86395D01*
X270000Y269800D02*
X297700Y297500D01*
X270000Y122200D02*
Y269800D01*
X242400Y94600D02*
X270000Y122200D01*
X316251Y53500D02*
X321317Y58566D01*
Y86395D01*
X236500Y53500D02*
X316251D01*
X208000Y82000D02*
Y168000D01*
Y82000D02*
X236500Y53500D01*
X189500Y186500D02*
X208000Y168000D01*
X189000Y95000D02*
X239000Y45000D01*
X189000Y95000D02*
Y104000D01*
X239000Y45000D02*
X310500D01*
X153500Y188500D02*
X204900Y239900D01*
X209900D01*
X153500Y188500D02*
Y229600D01*
X245538Y20462D02*
X249538D01*
X184292Y78465D02*
X187535D01*
X245538Y20462D01*
X184154Y78328D02*
X184292Y78465D01*
X180250Y82231D02*
X184154Y78328D01*
Y50154D02*
Y78328D01*
X249538Y20462D02*
X250000Y20000D01*
X176000Y42000D02*
X184154Y50154D01*
X162000Y42000D02*
X176000D01*
X155000Y35000D02*
X162000Y42000D01*
X155000Y20000D02*
Y35000D01*
X234000Y221083D02*
Y247532D01*
X223432Y258100D02*
X234000Y247532D01*
X180250Y195750D02*
X205583Y221083D01*
X234000D01*
X137700Y298900D02*
Y340500D01*
X165600Y277500D02*
X167300Y275800D01*
X133900Y277500D02*
X165600D01*
X131800Y258100D02*
X223432D01*
X67800Y256000D02*
Y287500D01*
X115300Y181100D02*
X130750Y165650D01*
X96900Y181100D02*
X115300D01*
X130750Y160050D02*
Y165650D01*
X89000Y189000D02*
X96900Y181100D01*
X119700Y149000D02*
X130750Y160050D01*
X112417Y149000D02*
X119700D01*
X86217Y122800D02*
X112417Y149000D01*
X84000Y89250D02*
X134000D01*
X70205Y103045D02*
X84000Y89250D01*
X70205Y110255D02*
X86217Y122800D01*
X70205Y103045D02*
Y110255D01*
X280000Y20000D02*
Y28000D01*
X276000Y32000D02*
X280000Y28000D01*
X239000Y126083D02*
X256100D01*
X234000Y121083D02*
X239000Y126083D01*
X199000Y34000D02*
X208000D01*
X185000Y20000D02*
X199000Y34000D01*
X242400Y74400D02*
Y94600D01*
X238000Y70000D02*
X242400Y74400D01*
X230000Y70000D02*
X238000D01*
X212800Y87200D02*
X230000Y70000D01*
X212800Y87200D02*
Y173200D01*
X199500Y186500D02*
X212800Y173200D01*
X199400Y44400D02*
Y56468D01*
X199393Y56475D02*
X199400Y56468D01*
X250159Y25841D02*
X264159D01*
X183750Y92250D02*
Y192250D01*
Y92250D02*
X250159Y25841D01*
X165000Y27000D02*
X172000Y34000D01*
X165000Y20000D02*
Y27000D01*
X120921Y28567D02*
X164000Y71646D01*
X36000Y50000D02*
Y68012D01*
X34933Y69079D02*
X36000Y68012D01*
X52000Y39146D02*
Y70000D01*
X38113Y78000D02*
X44000D01*
X52000Y70000D01*
X40921Y28067D02*
X52000Y39146D01*
X38072Y78041D02*
X38113Y78000D01*
X34933Y78921D02*
X35814Y78041D01*
X38072D01*
X32500Y344800D02*
Y360500D01*
Y305354D02*
Y344800D01*
X34933Y302921D02*
X64379D01*
X80000Y287300D01*
X40921Y28067D02*
X50988Y18000D01*
X72003D01*
X78380Y24377D01*
X82421Y28567D01*
X28000Y176000D02*
Y210000D01*
X31921Y213921D01*
X34933D01*
X28000Y220854D02*
X34933Y213921D01*
X28000Y220854D02*
Y256000D01*
X31921Y259921D01*
X34933D01*
X82421Y28567D02*
X92988Y18000D01*
X110503D01*
X116880Y24377D01*
X120921Y28567D01*
X32500Y344800D02*
X90000Y287300D01*
X160841Y15841D02*
X165000Y20000D01*
X160841Y15770D02*
Y15841D01*
X157870Y12800D02*
X160841Y15770D01*
X136688Y12800D02*
X157870D01*
X120921Y28567D02*
X136688Y12800D01*
X34933Y293079D02*
X61900Y266112D01*
Y179100D02*
Y266112D01*
Y179100D02*
X79000Y162000D01*
X102400Y150400D02*
X115000Y163000D01*
X64000Y150400D02*
X102400D01*
X51400Y163000D02*
X64000Y150400D01*
X51400Y163000D02*
Y233612D01*
X34933Y250079D02*
X51400Y233612D01*
X57900Y134000D02*
X78500D01*
X116700Y391800D02*
Y401100D01*
X111100Y406700D02*
X116700Y401100D01*
X67300Y406700D02*
X111100D01*
X42700Y431300D02*
X67300Y406700D01*
X42700Y431300D02*
Y451700D01*
X36000Y458400D02*
X42700Y451700D01*
X84000Y310700D02*
X99800Y294900D01*
Y235800D02*
Y294900D01*
X73200Y209200D02*
X99800Y235800D01*
X73200Y183200D02*
Y209200D01*
Y183200D02*
X82800D01*
X93400Y172600D01*
X115400D01*
X125000Y163000D01*
X156200Y450600D02*
X164000Y458400D01*
X125000Y450600D02*
X156200D01*
X114200Y439800D02*
X125000Y450600D01*
X88500Y117100D02*
X113400D01*
X124500Y106000D01*
X219500Y105583D02*
X234000Y91083D01*
X219500Y105583D02*
Y183905D01*
X211155Y192250D02*
X219500Y183905D01*
X183750Y192250D02*
X211155D01*
X264159Y25841D02*
X270000Y20000D01*
X175000D02*
X199400Y44400D01*
X71200Y395300D02*
X110900D01*
X35500Y431000D02*
X71200Y395300D01*
X265700Y534300D02*
X276000Y524000D01*
X26600Y534300D02*
X265700D01*
X26600Y378750D02*
Y534300D01*
Y378750D02*
X29600Y375750D01*
X50250D01*
X72500Y431000D02*
X100681Y459181D01*
X314000Y387700D02*
X336600Y410300D01*
X249800Y324000D02*
X258600Y332800D01*
X286500D01*
X308400Y354700D01*
Y389100D01*
X333100Y413800D01*
Y512900D01*
X322000Y524000D02*
X333100Y512900D01*
X115500Y430500D02*
X133300Y412700D01*
X252000Y413512D01*
X270250Y419262D02*
X276000Y413512D01*
X146738Y419262D02*
X270250D01*
X136000Y430000D02*
X146738Y419262D01*
X212900Y226100D02*
X228200Y241400D01*
X199600Y226100D02*
X212900D01*
X300000Y361300D02*
Y413512D01*
X284300Y359300D02*
X300000Y361300D01*
X265200Y340200D02*
X284300Y359300D01*
X198487Y340200D02*
X265200D01*
X150787Y292500D02*
X198487Y340200D01*
X156000Y430000D02*
X163238Y422762D01*
X290750D01*
X300000Y413512D01*
X133600Y271500D02*
X136600Y268500D01*
X23350Y372250D02*
X39365D01*
X49950Y361665D01*
Y347300D02*
Y361665D01*
X112750Y263150D02*
Y298865D01*
Y263150D02*
X141750Y234150D01*
Y108650D02*
Y234150D01*
X130200Y97100D02*
X141750Y108650D01*
X86900Y97100D02*
X130200D01*
X78500Y105500D02*
X86900Y97100D01*
X114500Y135000D02*
X134250Y154750D01*
Y226812D01*
X46450Y338963D02*
Y359389D01*
X37939Y367900D02*
X46450Y359389D01*
X28500Y367900D02*
X37939D01*
X219900Y529900D02*
X252000Y497800D01*
X30100Y529900D02*
X219900D01*
X30100Y436400D02*
Y529900D01*
Y436400D02*
X35500Y431000D01*
X221435Y357635D02*
X249800Y386000D01*
X195235Y357635D02*
X221435D01*
X164000Y71646D02*
Y106000D01*
X327300Y217783D02*
X334000Y211083D01*
X327300Y217783D02*
Y278900D01*
X308700Y297500D02*
X327300Y278900D01*
X297700Y297500D02*
X308700D01*
X234300Y440300D02*
X252000Y458000D01*
X143800Y440300D02*
X234300D01*
X119400Y406500D02*
X148000D01*
X108400Y417500D02*
X119400Y406500D01*
X108400Y417500D02*
Y443800D01*
X114000Y449400D01*
Y458400D01*
X53000Y431000D02*
X60064Y423936D01*
X159750Y286750D02*
X163200Y290200D01*
X146500Y286750D02*
X159750D01*
X143481Y289769D02*
X146500Y286750D01*
X143481Y289769D02*
Y300281D01*
X195100Y351900D01*
X244100D01*
X250000Y346000D01*
X137200Y284900D02*
Y287300D01*
X171550Y285350D02*
Y302850D01*
X184000Y315300D01*
X241100D01*
X249800Y324000D01*
X306788Y464300D02*
X322000Y479512D01*
X94500Y431000D02*
X104862Y441362D01*
X77900Y123400D02*
X88500Y134000D01*
X121000Y380500D02*
X136000D01*
X120500Y381000D02*
X121000Y380500D01*
X115500Y381000D02*
X120500D01*
X176000Y430000D02*
X305512D01*
X322000Y413512D01*
X118300Y195700D02*
X125000Y189000D01*
X85700Y195700D02*
X118300D01*
X79000Y189000D02*
X85700Y195700D01*
X36000Y524000D02*
X62000D01*
X190000D02*
X214000D01*
X62000D02*
X88000D01*
X164000D02*
X190000D01*
X138000D02*
X164000D01*
X88000D02*
X114000D01*
X138000D01*
X156000Y380500D02*
X176000D01*
X136000D02*
X156000D01*
X72500Y381500D02*
X94500D01*
X53000D02*
X72500D01*
X35500D02*
X53000D01*
X29100Y265754D02*
X34933Y259921D01*
X29100Y265754D02*
Y298900D01*
X33121Y302921D01*
X34933D01*
X32500Y305354D02*
X34933Y302921D01*
X165000Y20000D02*
X170900Y14100D01*
X254300D01*
X257700Y17500D01*
Y17700D01*
X260000Y20000D01*
X31079Y28067D02*
X50146Y9000D01*
X325200D01*
X78500Y61146D02*
Y77000D01*
Y61146D02*
X111079Y28567D01*
D42*
X334000Y141083D02*
D03*
X234000Y211083D02*
D03*
Y201083D02*
D03*
Y191083D02*
D03*
Y181083D02*
D03*
Y171083D02*
D03*
Y161083D02*
D03*
Y151083D02*
D03*
Y141083D02*
D03*
Y131083D02*
D03*
Y121083D02*
D03*
Y111083D02*
D03*
Y101083D02*
D03*
Y91083D02*
D03*
Y81083D02*
D03*
X334000Y221083D02*
D03*
Y211083D02*
D03*
Y201083D02*
D03*
Y191083D02*
D03*
Y181083D02*
D03*
Y171083D02*
D03*
Y151083D02*
D03*
Y131083D02*
D03*
Y121083D02*
D03*
Y111083D02*
D03*
Y101083D02*
D03*
Y91083D02*
D03*
Y81083D02*
D03*
Y161083D02*
D03*
D43*
X234000Y221083D02*
D03*
D44*
X10000Y540000D02*
D03*
Y10000D02*
D03*
X340000D02*
D03*
Y540000D02*
D03*
D45*
X113000Y76000D02*
D03*
X78500Y77000D02*
D03*
D46*
X123000Y76000D02*
D03*
X88500Y77000D02*
D03*
M02*
