G04*
G04 #@! TF.GenerationSoftware,Altium Limited,Altium Designer,25.8.1 (18)*
G04*
G04 Layer_Color=65535*
%FSLAX25Y25*%
%MOIN*%
G70*
G04*
G04 #@! TF.SameCoordinates,264A6FA4-DEAC-4DB1-97A0-32F326CD1466*
G04*
G04*
G04 #@! TF.FilePolarity,Positive*
G04*
G01*
G75*
%ADD10C,0.00984*%
%ADD11C,0.00787*%
%ADD12C,0.01000*%
%ADD13C,0.00500*%
%ADD14C,0.00600*%
%ADD15C,0.00300*%
D10*
X145492Y276000D02*
G03*
X145492Y276000I-492J0D01*
G01*
X242382Y20000D02*
G03*
X242382Y20000I-492J0D01*
G01*
X99268Y28567D02*
G03*
X99268Y28567I-492J0D01*
G01*
X60768D02*
G03*
X60768Y28567I-492J0D01*
G01*
X147382Y20000D02*
G03*
X147382Y20000I-492J0D01*
G01*
X35425Y56776D02*
G03*
X35425Y56776I-492J0D01*
G01*
Y102776D02*
G03*
X35425Y102776I-492J0D01*
G01*
X105242Y251500D02*
G03*
X105242Y251500I-492J0D01*
G01*
X171492Y294000D02*
G03*
X171492Y294000I-492J0D01*
G01*
X103492D02*
G03*
X103492Y294000I-492J0D01*
G01*
X19268Y28067D02*
G03*
X19268Y28067I-492J0D01*
G01*
X35492Y146854D02*
G03*
X35492Y146854I-492J0D01*
G01*
X35425Y191776D02*
G03*
X35425Y191776I-492J0D01*
G01*
Y237776D02*
G03*
X35425Y237776I-492J0D01*
G01*
Y280776D02*
G03*
X35425Y280776I-492J0D01*
G01*
D11*
X225929Y221083D02*
G03*
X225929Y221083I-394J0D01*
G01*
X155047Y257898D02*
Y270102D01*
X160953Y257898D02*
Y270102D01*
X155047D02*
X160953D01*
X155047Y257898D02*
X160953D01*
X244252Y25256D02*
X325748D01*
Y14744D02*
Y25256D01*
X244252Y14744D02*
X325748D01*
X244252D02*
Y25256D01*
X101433Y37819D02*
X130567D01*
Y15181D02*
Y37819D01*
X101433Y15181D02*
X130567D01*
X101433D02*
Y37819D01*
X62933D02*
X92067D01*
Y15181D02*
Y37819D01*
X62933Y15181D02*
X92067D01*
X62933D02*
Y37819D01*
X128000Y69740D02*
Y82260D01*
X108000Y69740D02*
X128000D01*
X108000Y82260D02*
X128000D01*
X108000Y69740D02*
Y82260D01*
X93500Y70740D02*
Y83260D01*
X73500Y70740D02*
X93500D01*
X73500Y83260D02*
X93500D01*
X73500Y70740D02*
Y83260D01*
Y99240D02*
Y111760D01*
X93500D01*
X73500Y99240D02*
X93500D01*
Y111760D01*
X109500Y99740D02*
Y112260D01*
X129500D01*
X109500Y99740D02*
X129500D01*
Y112260D01*
X149252Y14744D02*
Y25256D01*
Y14744D02*
X230748D01*
Y25256D01*
X149252D02*
X230748D01*
X25681Y59433D02*
Y88567D01*
X48319D01*
Y59433D02*
Y88567D01*
X25681Y59433D02*
X48319D01*
X25681Y105433D02*
X48319D01*
Y134567D01*
X25681D02*
X48319D01*
X25681Y105433D02*
Y134567D01*
X88797Y269602D02*
X94703D01*
X88797Y257398D02*
X94703D01*
X88797D02*
Y269602D01*
X94703Y257398D02*
Y269602D01*
X155047Y312102D02*
X160953D01*
X155047Y299898D02*
X160953D01*
X155047D02*
Y312102D01*
X160953Y299898D02*
Y312102D01*
X87047D02*
X92953D01*
X87047Y299898D02*
X92953D01*
X87047D02*
Y312102D01*
X92953Y299898D02*
Y312102D01*
X129500Y128740D02*
Y141260D01*
X109500Y128740D02*
X129500D01*
X109500Y141260D02*
X129500D01*
X109500Y128740D02*
Y141260D01*
X93500Y127740D02*
Y140260D01*
X73500Y127740D02*
X93500D01*
X73500Y140260D02*
X93500D01*
X73500Y127740D02*
Y140260D01*
X130000Y156740D02*
Y169260D01*
X110000Y156740D02*
X130000D01*
X110000Y169260D02*
X130000D01*
X110000Y156740D02*
Y169260D01*
X130000Y182740D02*
Y195260D01*
X110000Y182740D02*
X130000D01*
X110000Y195260D02*
X130000D01*
X110000Y182740D02*
Y195260D01*
X94000Y155740D02*
Y168260D01*
X74000Y155740D02*
X94000D01*
X74000Y168260D02*
X94000D01*
X74000Y155740D02*
Y168260D01*
X94000Y182740D02*
Y195260D01*
X74000Y182740D02*
X94000D01*
X74000Y195260D02*
X94000D01*
X74000Y182740D02*
Y195260D01*
X21433Y37319D02*
X50567D01*
Y14681D02*
Y37319D01*
X21433Y14681D02*
X50567D01*
X21433D02*
Y37319D01*
X25748Y149512D02*
Y178646D01*
X48386D01*
Y149512D02*
Y178646D01*
X25748Y149512D02*
X48386D01*
X25681Y194433D02*
Y223567D01*
X48319D01*
Y194433D02*
Y223567D01*
X25681Y194433D02*
X48319D01*
X25681Y240433D02*
Y269567D01*
X48319D01*
Y240433D02*
Y269567D01*
X25681Y240433D02*
X48319D01*
X25681Y283433D02*
Y312567D01*
X48319D01*
Y283433D02*
Y312567D01*
X25681Y283433D02*
X48319D01*
D12*
X17000Y10000D02*
G03*
X17000Y10000I-7000J0D01*
G01*
X347000D02*
G03*
X347000Y10000I-7000J0D01*
G01*
Y540000D02*
G03*
X347000Y540000I-7000J0D01*
G01*
X17000D02*
G03*
X17000Y540000I-7000J0D01*
G01*
X68000Y64000D02*
X134000D01*
X68000Y209000D02*
X134000D01*
Y64000D02*
Y209000D01*
X68000Y64000D02*
Y209000D01*
X144000Y92000D02*
X211000D01*
X144000Y208000D02*
X211000D01*
Y92000D02*
Y208000D01*
X144000Y92000D02*
Y208000D01*
X153002Y280999D02*
Y276001D01*
X154001Y275001D01*
X156001D01*
X157000Y276001D01*
Y280999D01*
X162998D02*
X159000D01*
Y278000D01*
X160999Y279000D01*
X161999D01*
X162998Y278000D01*
Y276001D01*
X161999Y275001D01*
X159999D01*
X159000Y276001D01*
X280002Y271999D02*
Y267001D01*
X281001Y266001D01*
X283001D01*
X284000Y267001D01*
Y271999D01*
X288999Y266001D02*
Y271999D01*
X286000Y269000D01*
X289998D01*
X330003Y383001D02*
Y388999D01*
X333002D01*
X334001Y387999D01*
Y386000D01*
X333002Y385000D01*
X330003D01*
X332002D02*
X334001Y383001D01*
X339999D02*
X336001D01*
X339999Y387000D01*
Y387999D01*
X339000Y388999D01*
X337000D01*
X336001Y387999D01*
X341999D02*
X342998Y388999D01*
X344998D01*
X345997Y387999D01*
Y387000D01*
X344998Y386000D01*
X343998D01*
X344998D01*
X345997Y385000D01*
Y384001D01*
X344998Y383001D01*
X342998D01*
X341999Y384001D01*
X256502Y321001D02*
Y326999D01*
X259502D01*
X260501Y325999D01*
Y324000D01*
X259502Y323000D01*
X256502D01*
X258502D02*
X260501Y321001D01*
X262501D02*
X264500D01*
X263500D01*
Y326999D01*
X262501Y325999D01*
X271498Y326999D02*
X269498Y325999D01*
X267499Y324000D01*
Y322001D01*
X268498Y321001D01*
X270498D01*
X271498Y322001D01*
Y323000D01*
X270498Y324000D01*
X267499D01*
X256702Y343501D02*
Y349499D01*
X259701D01*
X260701Y348499D01*
Y346500D01*
X259701Y345500D01*
X256702D01*
X258702D02*
X260701Y343501D01*
X262701D02*
X264700D01*
X263700D01*
Y349499D01*
X262701Y348499D01*
X271698Y349499D02*
X267699D01*
Y346500D01*
X269698Y347500D01*
X270698D01*
X271698Y346500D01*
Y344501D01*
X270698Y343501D01*
X268699D01*
X267699Y344501D01*
X257002Y362001D02*
Y367999D01*
X260001D01*
X261000Y366999D01*
Y365000D01*
X260001Y364000D01*
X257002D01*
X259001D02*
X261000Y362001D01*
X263000Y363001D02*
X263999Y362001D01*
X265999D01*
X266998Y363001D01*
Y366999D01*
X265999Y367999D01*
X263999D01*
X263000Y366999D01*
Y366000D01*
X263999Y365000D01*
X266998D01*
X257002Y383001D02*
Y388999D01*
X260001D01*
X261000Y387999D01*
Y386000D01*
X260001Y385000D01*
X257002D01*
X259001D02*
X261000Y383001D01*
X265999D02*
Y388999D01*
X263000Y386000D01*
X266998D01*
X205800Y531500D02*
Y537498D01*
X208799D01*
X209799Y536498D01*
Y534499D01*
X208799Y533499D01*
X205800D01*
X207799D02*
X209799Y531500D01*
X211798Y536498D02*
X212798Y537498D01*
X214797D01*
X215797Y536498D01*
Y535499D01*
X214797Y534499D01*
X213797D01*
X214797D01*
X215797Y533499D01*
Y532500D01*
X214797Y531500D01*
X212798D01*
X211798Y532500D01*
X220795Y531500D02*
Y537498D01*
X217796Y534499D01*
X221795D01*
X217000Y483400D02*
X211002D01*
Y486399D01*
X212002Y487399D01*
X214001D01*
X215001Y486399D01*
Y483400D01*
Y485399D02*
X217000Y487399D01*
X212002Y489398D02*
X211002Y490398D01*
Y492397D01*
X212002Y493397D01*
X213001D01*
X214001Y492397D01*
Y491397D01*
Y492397D01*
X215001Y493397D01*
X216000D01*
X217000Y492397D01*
Y490398D01*
X216000Y489398D01*
X217000Y495396D02*
X211002D01*
X213001Y497396D01*
X211002Y499395D01*
X217000D01*
X330003Y363001D02*
Y368999D01*
X333002D01*
X334001Y367999D01*
Y366000D01*
X333002Y365000D01*
X330003D01*
X332002D02*
X334001Y363001D01*
X339999D02*
X336001D01*
X339999Y367000D01*
Y367999D01*
X339000Y368999D01*
X337000D01*
X336001Y367999D01*
X344998Y363001D02*
Y368999D01*
X341999Y366000D01*
X345997D01*
X168503Y436501D02*
Y442499D01*
X171502D01*
X172501Y441499D01*
Y439500D01*
X171502Y438500D01*
X168503D01*
X170502D02*
X172501Y436501D01*
X174501Y441499D02*
X175500Y442499D01*
X177500D01*
X178499Y441499D01*
Y440500D01*
X177500Y439500D01*
X176500D01*
X177500D01*
X178499Y438500D01*
Y437501D01*
X177500Y436501D01*
X175500D01*
X174501Y437501D01*
X180499Y441499D02*
X181498Y442499D01*
X183498D01*
X184497Y441499D01*
Y437501D01*
X183498Y436501D01*
X181498D01*
X180499Y437501D01*
Y441499D01*
X193000Y483400D02*
X187002D01*
Y486399D01*
X188002Y487399D01*
X190001D01*
X191001Y486399D01*
Y483400D01*
Y485399D02*
X193000Y487399D01*
X188002Y489398D02*
X187002Y490398D01*
Y492397D01*
X188002Y493397D01*
X189001D01*
X190001Y492397D01*
Y491397D01*
Y492397D01*
X191001Y493397D01*
X192000D01*
X193000Y492397D01*
Y490398D01*
X192000Y489398D01*
X193000Y495396D02*
X187002D01*
X189001Y497396D01*
X187002Y499395D01*
X193000D01*
X167000Y483400D02*
X161002D01*
Y486399D01*
X162002Y487399D01*
X164001D01*
X165001Y486399D01*
Y483400D01*
Y485399D02*
X167000Y487399D01*
X162002Y489398D02*
X161002Y490398D01*
Y492397D01*
X162002Y493397D01*
X163001D01*
X164001Y492397D01*
Y491397D01*
Y492397D01*
X165001Y493397D01*
X166000D01*
X167000Y492397D01*
Y490398D01*
X166000Y489398D01*
X167000Y495396D02*
X161002D01*
X163001Y497396D01*
X161002Y499395D01*
X167000D01*
X181000Y141999D02*
X175002D01*
X178001Y139000D01*
Y142999D01*
X175002Y144998D02*
Y148997D01*
X176002D01*
X180000Y144998D01*
X181000D01*
X176002Y150996D02*
X175002Y151996D01*
Y153995D01*
X176002Y154995D01*
X180000D01*
X181000Y153995D01*
Y151996D01*
X180000Y150996D01*
X176002D01*
X181000Y156994D02*
X177001D01*
Y159993D01*
X178001Y160993D01*
X181000D01*
X175002Y166991D02*
Y162992D01*
X178001D01*
Y164992D01*
Y162992D01*
X181000D01*
X105000Y121000D02*
Y122999D01*
Y122000D01*
X99002D01*
X100002Y121000D01*
Y125998D02*
X99002Y126998D01*
Y128997D01*
X100002Y129997D01*
X104000D01*
X105000Y128997D01*
Y126998D01*
X104000Y125998D01*
X100002D01*
Y131996D02*
X99002Y132996D01*
Y134995D01*
X100002Y135995D01*
X104000D01*
X105000Y134995D01*
Y132996D01*
X104000Y131996D01*
X100002D01*
X105000Y137995D02*
X101001D01*
Y140993D01*
X102001Y141993D01*
X105000D01*
X99002Y147991D02*
Y143993D01*
X102001D01*
Y145992D01*
Y143993D01*
X105000D01*
X15000Y487000D02*
X9002D01*
X6003Y489999D01*
X9002Y492998D01*
X15000D01*
X10501D01*
Y487000D01*
X15000Y495997D02*
X6003D01*
X9002Y498996D01*
X6003Y501995D01*
X15000D01*
X6003Y504994D02*
X15000D01*
Y509493D01*
X13500Y510992D01*
X7502D01*
X6003Y509493D01*
Y504994D01*
X7502Y513991D02*
X6003Y515491D01*
Y518490D01*
X7502Y519989D01*
X9002D01*
X10501Y518490D01*
Y516990D01*
Y518490D01*
X12001Y519989D01*
X13500D01*
X15000Y518490D01*
Y515491D01*
X13500Y513991D01*
X6003Y528986D02*
X7502Y525987D01*
X10501Y522988D01*
X13500D01*
X15000Y524488D01*
Y527487D01*
X13500Y528986D01*
X12001D01*
X10501Y527487D01*
Y522988D01*
X141000Y483400D02*
X135002D01*
Y486399D01*
X136002Y487399D01*
X138001D01*
X139001Y486399D01*
Y483400D01*
Y485399D02*
X141000Y487399D01*
X136002Y489398D02*
X135002Y490398D01*
Y492397D01*
X136002Y493397D01*
X137001D01*
X138001Y492397D01*
Y491397D01*
Y492397D01*
X139001Y493397D01*
X140000D01*
X141000Y492397D01*
Y490398D01*
X140000Y489398D01*
X141000Y495396D02*
X135002D01*
X137001Y497396D01*
X135002Y499395D01*
X141000D01*
X117000Y483400D02*
X111002D01*
Y486399D01*
X112002Y487399D01*
X114001D01*
X115001Y486399D01*
Y483400D01*
Y485399D02*
X117000Y487399D01*
X112002Y489398D02*
X111002Y490398D01*
Y492397D01*
X112002Y493397D01*
X113001D01*
X114001Y492397D01*
Y491397D01*
Y492397D01*
X115001Y493397D01*
X116000D01*
X117000Y492397D01*
Y490398D01*
X116000Y489398D01*
X117000Y495396D02*
X111002D01*
X113001Y497396D01*
X111002Y499395D01*
X117000D01*
X91000Y483400D02*
X85002D01*
Y486399D01*
X86002Y487399D01*
X88001D01*
X89001Y486399D01*
Y483400D01*
Y485399D02*
X91000Y487399D01*
X86002Y489398D02*
X85002Y490398D01*
Y492397D01*
X86002Y493397D01*
X87001D01*
X88001Y492397D01*
Y491397D01*
Y492397D01*
X89001Y493397D01*
X90000D01*
X91000Y492397D01*
Y490398D01*
X90000Y489398D01*
X91000Y495396D02*
X85002D01*
X87001Y497396D01*
X85002Y499395D01*
X91000D01*
X65000Y483400D02*
X59002D01*
Y486399D01*
X60002Y487399D01*
X62001D01*
X63001Y486399D01*
Y483400D01*
Y485399D02*
X65000Y487399D01*
X60002Y489398D02*
X59002Y490398D01*
Y492397D01*
X60002Y493397D01*
X61001D01*
X62001Y492397D01*
Y491397D01*
Y492397D01*
X63001Y493397D01*
X64000D01*
X65000Y492397D01*
Y490398D01*
X64000Y489398D01*
X65000Y495396D02*
X59002D01*
X61001Y497396D01*
X59002Y499395D01*
X65000D01*
X39000Y483400D02*
X33002D01*
Y486399D01*
X34002Y487399D01*
X36001D01*
X37001Y486399D01*
Y483400D01*
Y485399D02*
X39000Y487399D01*
X34002Y489398D02*
X33002Y490398D01*
Y492397D01*
X34002Y493397D01*
X35001D01*
X36001Y492397D01*
Y491397D01*
Y492397D01*
X37001Y493397D01*
X38000D01*
X39000Y492397D01*
Y490398D01*
X38000Y489398D01*
X39000Y495396D02*
X33002D01*
X35001Y497396D01*
X33002Y499395D01*
X39000D01*
X181800Y531500D02*
Y537498D01*
X184799D01*
X185799Y536498D01*
Y534499D01*
X184799Y533499D01*
X181800D01*
X183799D02*
X185799Y531500D01*
X187798Y536498D02*
X188798Y537498D01*
X190797D01*
X191797Y536498D01*
Y535499D01*
X190797Y534499D01*
X189797D01*
X190797D01*
X191797Y533499D01*
Y532500D01*
X190797Y531500D01*
X188798D01*
X187798Y532500D01*
X193796Y536498D02*
X194796Y537498D01*
X196795D01*
X197795Y536498D01*
Y535499D01*
X196795Y534499D01*
X195796D01*
X196795D01*
X197795Y533499D01*
Y532500D01*
X196795Y531500D01*
X194796D01*
X193796Y532500D01*
X330003Y321001D02*
Y326999D01*
X333002D01*
X334001Y325999D01*
Y324000D01*
X333002Y323000D01*
X330003D01*
X332002D02*
X334001Y321001D01*
X336001Y325999D02*
X337000Y326999D01*
X339000D01*
X339999Y325999D01*
Y325000D01*
X339000Y324000D01*
X338000D01*
X339000D01*
X339999Y323000D01*
Y322001D01*
X339000Y321001D01*
X337000D01*
X336001Y322001D01*
X345997Y321001D02*
X341999D01*
X345997Y325000D01*
Y325999D01*
X344998Y326999D01*
X342998D01*
X341999Y325999D01*
X331002Y343001D02*
Y348999D01*
X334001D01*
X335001Y347999D01*
Y346000D01*
X334001Y345000D01*
X331002D01*
X333002D02*
X335001Y343001D01*
X337000Y347999D02*
X338000Y348999D01*
X339999D01*
X340999Y347999D01*
Y347000D01*
X339999Y346000D01*
X339000D01*
X339999D01*
X340999Y345000D01*
Y344001D01*
X339999Y343001D01*
X338000D01*
X337000Y344001D01*
X342998Y343001D02*
X344998D01*
X343998D01*
Y348999D01*
X342998Y347999D01*
X148503Y436501D02*
Y442499D01*
X151502D01*
X152501Y441499D01*
Y439500D01*
X151502Y438500D01*
X148503D01*
X150502D02*
X152501Y436501D01*
X158499D02*
X154501D01*
X158499Y440500D01*
Y441499D01*
X157500Y442499D01*
X155500D01*
X154501Y441499D01*
X160499Y437501D02*
X161498Y436501D01*
X163498D01*
X164497Y437501D01*
Y441499D01*
X163498Y442499D01*
X161498D01*
X160499Y441499D01*
Y440500D01*
X161498Y439500D01*
X164497D01*
X314503Y464513D02*
Y470511D01*
X317502D01*
X318501Y469511D01*
Y467512D01*
X317502Y466512D01*
X314503D01*
X316502D02*
X318501Y464513D01*
X324499D02*
X320501D01*
X324499Y468511D01*
Y469511D01*
X323500Y470511D01*
X321500D01*
X320501Y469511D01*
X326499D02*
X327498Y470511D01*
X329498D01*
X330497Y469511D01*
Y468511D01*
X329498Y467512D01*
X330497Y466512D01*
Y465513D01*
X329498Y464513D01*
X327498D01*
X326499Y465513D01*
Y466512D01*
X327498Y467512D01*
X326499Y468511D01*
Y469511D01*
X327498Y467512D02*
X329498D01*
X291503Y464513D02*
Y470511D01*
X294502D01*
X295501Y469511D01*
Y467512D01*
X294502Y466512D01*
X291503D01*
X293502D02*
X295501Y464513D01*
X301499D02*
X297501D01*
X301499Y468511D01*
Y469511D01*
X300500Y470511D01*
X298500D01*
X297501Y469511D01*
X303499Y470511D02*
X307497D01*
Y469511D01*
X303499Y465513D01*
Y464513D01*
X249501Y34999D02*
X247501D01*
X248501D01*
Y30001D01*
X247501Y29001D01*
X246502D01*
X245502Y30001D01*
X251500Y29001D02*
X253500D01*
X252500D01*
Y34999D01*
X251500Y33999D01*
X256499Y29001D02*
X258498D01*
X257498D01*
Y34999D01*
X256499Y33999D01*
X64299Y47598D02*
X62299D01*
X63299D01*
Y42600D01*
X62299Y41600D01*
X61300D01*
X60300Y42600D01*
X66298D02*
X67298Y41600D01*
X69297D01*
X70297Y42600D01*
Y46598D01*
X69297Y47598D01*
X67298D01*
X66298Y46598D01*
Y45599D01*
X67298Y44599D01*
X70297D01*
X102799Y47598D02*
X100799D01*
X101799D01*
Y42600D01*
X100799Y41600D01*
X99800D01*
X98800Y42600D01*
X104798Y46598D02*
X105798Y47598D01*
X107797D01*
X108797Y46598D01*
Y45599D01*
X107797Y44599D01*
X108797Y43599D01*
Y42600D01*
X107797Y41600D01*
X105798D01*
X104798Y42600D01*
Y43599D01*
X105798Y44599D01*
X104798Y45599D01*
Y46598D01*
X105798Y44599D02*
X107797D01*
X187699Y119498D02*
X186699Y120498D01*
X184700D01*
X183700Y119498D01*
Y115500D01*
X184700Y114500D01*
X186699D01*
X187699Y115500D01*
X189698Y114500D02*
X191697D01*
X190698D01*
Y120498D01*
X189698Y119498D01*
X194696D02*
X195696Y120498D01*
X197696D01*
X198695Y119498D01*
Y118499D01*
X197696Y117499D01*
X198695Y116499D01*
Y115500D01*
X197696Y114500D01*
X195696D01*
X194696Y115500D01*
Y116499D01*
X195696Y117499D01*
X194696Y118499D01*
Y119498D01*
X195696Y117499D02*
X197696D01*
X152699Y121498D02*
X151699Y122498D01*
X149700D01*
X148700Y121498D01*
Y117500D01*
X149700Y116500D01*
X151699D01*
X152699Y117500D01*
X154698Y116500D02*
X156697D01*
X155698D01*
Y122498D01*
X154698Y121498D01*
X159696Y122498D02*
X163695D01*
Y121498D01*
X159696Y117500D01*
Y116500D01*
X112499Y90798D02*
X111499Y91798D01*
X109500D01*
X108500Y90798D01*
Y86800D01*
X109500Y85800D01*
X111499D01*
X112499Y86800D01*
X114498Y85800D02*
X116497D01*
X115498D01*
Y91798D01*
X114498Y90798D01*
X123495Y91798D02*
X121496Y90798D01*
X119496Y88799D01*
Y86800D01*
X120496Y85800D01*
X122495D01*
X123495Y86800D01*
Y87799D01*
X122495Y88799D01*
X119496D01*
X77999Y91798D02*
X76999Y92798D01*
X75000D01*
X74000Y91798D01*
Y87800D01*
X75000Y86800D01*
X76999D01*
X77999Y87800D01*
X79998Y86800D02*
X81997D01*
X80998D01*
Y92798D01*
X79998Y91798D01*
X88995Y92798D02*
X84996D01*
Y89799D01*
X86996Y90799D01*
X87995D01*
X88995Y89799D01*
Y87800D01*
X87995Y86800D01*
X85996D01*
X84996Y87800D01*
X16001Y73000D02*
Y71001D01*
Y72001D01*
X20999D01*
X21999Y71001D01*
Y70001D01*
X20999Y69002D01*
X16001Y78998D02*
X17001Y76999D01*
X19000Y75000D01*
X20999D01*
X21999Y75999D01*
Y77999D01*
X20999Y78998D01*
X20000D01*
X19000Y77999D01*
Y75000D01*
X86752Y280499D02*
Y275501D01*
X87751Y274501D01*
X89751D01*
X90750Y275501D01*
Y280499D01*
X92750Y279499D02*
X93749Y280499D01*
X95749D01*
X96748Y279499D01*
Y278500D01*
X95749Y277500D01*
X94749D01*
X95749D01*
X96748Y276500D01*
Y275501D01*
X95749Y274501D01*
X93749D01*
X92750Y275501D01*
X153002Y322999D02*
Y318001D01*
X154001Y317001D01*
X156001D01*
X157000Y318001D01*
Y322999D01*
X162998Y317001D02*
X159000D01*
X162998Y321000D01*
Y321999D01*
X161999Y322999D01*
X159999D01*
X159000Y321999D01*
X86001Y322999D02*
Y318001D01*
X87001Y317001D01*
X89000D01*
X90000Y318001D01*
Y322999D01*
X91999Y317001D02*
X93999D01*
X92999D01*
Y322999D01*
X91999Y321999D01*
X155800Y531500D02*
Y537498D01*
X158799D01*
X159799Y536498D01*
Y534499D01*
X158799Y533499D01*
X155800D01*
X157799D02*
X159799Y531500D01*
X165797D02*
X161798D01*
X165797Y535499D01*
Y536498D01*
X164797Y537498D01*
X162798D01*
X161798Y536498D01*
X171795Y537498D02*
X169796Y536498D01*
X167796Y534499D01*
Y532500D01*
X168796Y531500D01*
X170795D01*
X171795Y532500D01*
Y533499D01*
X170795Y534499D01*
X167796D01*
X129800Y531500D02*
Y537498D01*
X132799D01*
X133799Y536498D01*
Y534499D01*
X132799Y533499D01*
X129800D01*
X131799D02*
X133799Y531500D01*
X139797D02*
X135798D01*
X139797Y535499D01*
Y536498D01*
X138797Y537498D01*
X136798D01*
X135798Y536498D01*
X145795Y537498D02*
X141796D01*
Y534499D01*
X143796Y535499D01*
X144795D01*
X145795Y534499D01*
Y532500D01*
X144795Y531500D01*
X142796D01*
X141796Y532500D01*
X128503Y436501D02*
Y442499D01*
X131502D01*
X132501Y441499D01*
Y439500D01*
X131502Y438500D01*
X128503D01*
X130502D02*
X132501Y436501D01*
X138499D02*
X134501D01*
X138499Y440500D01*
Y441499D01*
X137500Y442499D01*
X135500D01*
X134501Y441499D01*
X144497Y436501D02*
X140499D01*
X144497Y440500D01*
Y441499D01*
X143498Y442499D01*
X141498D01*
X140499Y441499D01*
X109002Y437001D02*
Y442999D01*
X112001D01*
X113001Y441999D01*
Y440000D01*
X112001Y439000D01*
X109002D01*
X111002D02*
X113001Y437001D01*
X118999D02*
X115000D01*
X118999Y441000D01*
Y441999D01*
X117999Y442999D01*
X116000D01*
X115000Y441999D01*
X120998Y437001D02*
X122998D01*
X121998D01*
Y442999D01*
X120998Y441999D01*
X268003Y464501D02*
Y470499D01*
X271002D01*
X272001Y469499D01*
Y467500D01*
X271002Y466500D01*
X268003D01*
X270002D02*
X272001Y464501D01*
X277999D02*
X274001D01*
X277999Y468500D01*
Y469499D01*
X277000Y470499D01*
X275000D01*
X274001Y469499D01*
X279999D02*
X280998Y470499D01*
X282998D01*
X283997Y469499D01*
Y465501D01*
X282998Y464501D01*
X280998D01*
X279999Y465501D01*
Y469499D01*
X244502Y464501D02*
Y470499D01*
X247501D01*
X248501Y469499D01*
Y467500D01*
X247501Y466500D01*
X244502D01*
X246502D02*
X248501Y464501D01*
X250500D02*
X252500D01*
X251500D01*
Y470499D01*
X250500Y469499D01*
X255499Y465501D02*
X256499Y464501D01*
X258498D01*
X259498Y465501D01*
Y469499D01*
X258498Y470499D01*
X256499D01*
X255499Y469499D01*
Y468500D01*
X256499Y467500D01*
X259498D01*
X105800Y531500D02*
Y537498D01*
X108799D01*
X109799Y536498D01*
Y534499D01*
X108799Y533499D01*
X105800D01*
X107799D02*
X109799Y531500D01*
X111798D02*
X113797D01*
X112798D01*
Y537498D01*
X111798Y536498D01*
X116796D02*
X117796Y537498D01*
X119796D01*
X120795Y536498D01*
Y535499D01*
X119796Y534499D01*
X120795Y533499D01*
Y532500D01*
X119796Y531500D01*
X117796D01*
X116796Y532500D01*
Y533499D01*
X117796Y534499D01*
X116796Y535499D01*
Y536498D01*
X117796Y534499D02*
X119796D01*
X79800Y531500D02*
Y537498D01*
X82799D01*
X83799Y536498D01*
Y534499D01*
X82799Y533499D01*
X79800D01*
X81799D02*
X83799Y531500D01*
X85798D02*
X87797D01*
X86798D01*
Y537498D01*
X85798Y536498D01*
X90796Y537498D02*
X94795D01*
Y536498D01*
X90796Y532500D01*
Y531500D01*
X87502Y437001D02*
Y442999D01*
X90501D01*
X91501Y441999D01*
Y440000D01*
X90501Y439000D01*
X87502D01*
X89502D02*
X91501Y437001D01*
X93501D02*
X95500D01*
X94500D01*
Y442999D01*
X93501Y441999D01*
X101498Y437001D02*
Y442999D01*
X98499Y440000D01*
X102498D01*
X65502Y437001D02*
Y442999D01*
X68502D01*
X69501Y441999D01*
Y440000D01*
X68502Y439000D01*
X65502D01*
X67502D02*
X69501Y437001D01*
X71500D02*
X73500D01*
X72500D01*
Y442999D01*
X71500Y441999D01*
X76499D02*
X77499Y442999D01*
X79498D01*
X80498Y441999D01*
Y441000D01*
X79498Y440000D01*
X78498D01*
X79498D01*
X80498Y439000D01*
Y438001D01*
X79498Y437001D01*
X77499D01*
X76499Y438001D01*
X314502Y530513D02*
Y536511D01*
X317501D01*
X318501Y535511D01*
Y533512D01*
X317501Y532512D01*
X314502D01*
X316502D02*
X318501Y530513D01*
X320500D02*
X322500D01*
X321500D01*
Y536511D01*
X320500Y535511D01*
X329498Y530513D02*
X325499D01*
X329498Y534512D01*
Y535511D01*
X328498Y536511D01*
X326499D01*
X325499Y535511D01*
X293502Y530513D02*
Y536511D01*
X296501D01*
X297501Y535511D01*
Y533512D01*
X296501Y532512D01*
X293502D01*
X295501D02*
X297501Y530513D01*
X299500D02*
X301500D01*
X300500D01*
Y536511D01*
X299500Y535511D01*
X304499Y530513D02*
X306498D01*
X305498D01*
Y536511D01*
X304499Y535511D01*
X53800Y531500D02*
Y537498D01*
X56799D01*
X57799Y536498D01*
Y534499D01*
X56799Y533499D01*
X53800D01*
X55799D02*
X57799Y531500D01*
X59798D02*
X61797D01*
X60798D01*
Y537498D01*
X59798Y536498D01*
X64796D02*
X65796Y537498D01*
X67795D01*
X68795Y536498D01*
Y532500D01*
X67795Y531500D01*
X65796D01*
X64796Y532500D01*
Y536498D01*
X47800Y437500D02*
Y443498D01*
X50799D01*
X51799Y442498D01*
Y440499D01*
X50799Y439499D01*
X47800D01*
X49799D02*
X51799Y437500D01*
X53798Y442498D02*
X54798Y443498D01*
X56797D01*
X57797Y442498D01*
Y441499D01*
X56797Y440499D01*
X57797Y439499D01*
Y438500D01*
X56797Y437500D01*
X54798D01*
X53798Y438500D01*
Y439499D01*
X54798Y440499D01*
X53798Y441499D01*
Y442498D01*
X54798Y440499D02*
X56797D01*
X271002Y530513D02*
Y536511D01*
X274001D01*
X275000Y535511D01*
Y533512D01*
X274001Y532512D01*
X271002D01*
X273001D02*
X275000Y530513D01*
X277000Y536511D02*
X280998D01*
Y535511D01*
X277000Y531512D01*
Y530513D01*
X27800Y531500D02*
Y537498D01*
X30799D01*
X31799Y536498D01*
Y534499D01*
X30799Y533499D01*
X27800D01*
X29799D02*
X31799Y531500D01*
X37797Y537498D02*
X35797Y536498D01*
X33798Y534499D01*
Y532500D01*
X34798Y531500D01*
X36797D01*
X37797Y532500D01*
Y533499D01*
X36797Y534499D01*
X33798D01*
X83002Y357001D02*
Y362999D01*
X86001D01*
X87000Y361999D01*
Y360000D01*
X86001Y359000D01*
X83002D01*
X85001D02*
X87000Y357001D01*
X92998Y362999D02*
X89000D01*
Y360000D01*
X90999Y361000D01*
X91999D01*
X92998Y360000D01*
Y358001D01*
X91999Y357001D01*
X89999D01*
X89000Y358001D01*
X30300Y437500D02*
Y443498D01*
X33299D01*
X34299Y442498D01*
Y440499D01*
X33299Y439499D01*
X30300D01*
X32299D02*
X34299Y437500D01*
X36298Y442498D02*
X37298Y443498D01*
X39297D01*
X40297Y442498D01*
Y441499D01*
X39297Y440499D01*
X38297D01*
X39297D01*
X40297Y439499D01*
Y438500D01*
X39297Y437500D01*
X37298D01*
X36298Y438500D01*
X169002Y357001D02*
Y362999D01*
X172001D01*
X173000Y361999D01*
Y360000D01*
X172001Y359000D01*
X169002D01*
X171001D02*
X173000Y357001D01*
X178998D02*
X175000D01*
X178998Y361000D01*
Y361999D01*
X177999Y362999D01*
X175999D01*
X175000Y361999D01*
X247501Y530513D02*
Y536511D01*
X250500D01*
X251500Y535511D01*
Y533512D01*
X250500Y532512D01*
X247501D01*
X249501D02*
X251500Y530513D01*
X253499D02*
X255499D01*
X254499D01*
Y536511D01*
X253499Y535511D01*
X152501Y34999D02*
X150502D01*
X151502D01*
Y30001D01*
X150502Y29001D01*
X149502D01*
X148502Y30001D01*
X154500Y29001D02*
X156500D01*
X155500D01*
Y34999D01*
X154500Y33999D01*
X159499D02*
X160499Y34999D01*
X162498D01*
X163498Y33999D01*
Y30001D01*
X162498Y29001D01*
X160499D01*
X159499Y30001D01*
Y33999D01*
X35000Y46999D02*
X33001D01*
X34001D01*
Y42001D01*
X33001Y41001D01*
X32001D01*
X31002Y42001D01*
X37000Y46999D02*
X40998D01*
Y45999D01*
X37000Y42001D01*
Y41001D01*
X16001Y119000D02*
Y117001D01*
Y118001D01*
X20999D01*
X21999Y117001D01*
Y116001D01*
X20999Y115002D01*
X16001Y124998D02*
Y121000D01*
X19000D01*
X18000Y122999D01*
Y123999D01*
X19000Y124998D01*
X20999D01*
X21999Y123999D01*
Y121999D01*
X20999Y121000D01*
X16001Y163000D02*
Y161001D01*
Y162001D01*
X20999D01*
X21999Y161001D01*
Y160001D01*
X20999Y159002D01*
X21999Y167999D02*
X16001D01*
X19000Y165000D01*
Y168998D01*
X16001Y208000D02*
Y206001D01*
Y207001D01*
X20999D01*
X21999Y206001D01*
Y205001D01*
X20999Y204002D01*
X17001Y210000D02*
X16001Y210999D01*
Y212999D01*
X17001Y213998D01*
X18000D01*
X19000Y212999D01*
Y211999D01*
Y212999D01*
X20000Y213998D01*
X20999D01*
X21999Y212999D01*
Y210999D01*
X20999Y210000D01*
X16001Y254000D02*
Y252001D01*
Y253001D01*
X20999D01*
X21999Y252001D01*
Y251001D01*
X20999Y250002D01*
X21999Y259998D02*
Y256000D01*
X18000Y259998D01*
X17001D01*
X16001Y258999D01*
Y256999D01*
X17001Y256000D01*
X16001Y298000D02*
Y296001D01*
Y297000D01*
X20999D01*
X21999Y296001D01*
Y295001D01*
X20999Y294001D01*
X21999Y299999D02*
Y301999D01*
Y300999D01*
X16001D01*
X17001Y299999D01*
X191501Y145999D02*
X190501Y146999D01*
X188502D01*
X187502Y145999D01*
Y142001D01*
X188502Y141001D01*
X190501D01*
X191501Y142001D01*
X193500Y141001D02*
X195500D01*
X194500D01*
Y146999D01*
X193500Y145999D01*
X201498Y141001D02*
Y146999D01*
X198499Y144000D01*
X202498D01*
X155501Y147999D02*
X154501Y148999D01*
X152502D01*
X151502Y147999D01*
Y144001D01*
X152502Y143001D01*
X154501D01*
X155501Y144001D01*
X157501Y143001D02*
X159500D01*
X158500D01*
Y148999D01*
X157501Y147999D01*
X162499D02*
X163499Y148999D01*
X165498D01*
X166498Y147999D01*
Y147000D01*
X165498Y146000D01*
X164498D01*
X165498D01*
X166498Y145000D01*
Y144001D01*
X165498Y143001D01*
X163499D01*
X162499Y144001D01*
X114001Y119499D02*
X113002Y120499D01*
X111002D01*
X110002Y119499D01*
Y115501D01*
X111002Y114501D01*
X113002D01*
X114001Y115501D01*
X116000Y114501D02*
X118000D01*
X117000D01*
Y120499D01*
X116000Y119499D01*
X124998Y114501D02*
X120999D01*
X124998Y118500D01*
Y119499D01*
X123998Y120499D01*
X121999D01*
X120999Y119499D01*
X78001Y118999D02*
X77001Y119999D01*
X75002D01*
X74002Y118999D01*
Y115001D01*
X75002Y114001D01*
X77001D01*
X78001Y115001D01*
X80000Y114001D02*
X81999D01*
X81000D01*
Y119999D01*
X80000Y118999D01*
X84999Y114001D02*
X86998D01*
X85998D01*
Y119999D01*
X84999Y118999D01*
X191501Y174999D02*
X190501Y175999D01*
X188502D01*
X187502Y174999D01*
Y171001D01*
X188502Y170001D01*
X190501D01*
X191501Y171001D01*
X193500Y170001D02*
X195500D01*
X194500D01*
Y175999D01*
X193500Y174999D01*
X198499D02*
X199499Y175999D01*
X201498D01*
X202498Y174999D01*
Y171001D01*
X201498Y170001D01*
X199499D01*
X198499Y171001D01*
Y174999D01*
X158000Y176999D02*
X157001Y177999D01*
X155001D01*
X154002Y176999D01*
Y173001D01*
X155001Y172001D01*
X157001D01*
X158000Y173001D01*
X160000D02*
X160999Y172001D01*
X162999D01*
X163998Y173001D01*
Y176999D01*
X162999Y177999D01*
X160999D01*
X160000Y176999D01*
Y176000D01*
X160999Y175000D01*
X163998D01*
X113999Y149798D02*
X112999Y150798D01*
X111000D01*
X110000Y149798D01*
Y145800D01*
X111000Y144800D01*
X112999D01*
X113999Y145800D01*
X115998Y149798D02*
X116998Y150798D01*
X118997D01*
X119997Y149798D01*
Y148799D01*
X118997Y147799D01*
X119997Y146799D01*
Y145800D01*
X118997Y144800D01*
X116998D01*
X115998Y145800D01*
Y146799D01*
X116998Y147799D01*
X115998Y148799D01*
Y149798D01*
X116998Y147799D02*
X118997D01*
X77999Y148798D02*
X76999Y149798D01*
X75000D01*
X74000Y148798D01*
Y144800D01*
X75000Y143800D01*
X76999D01*
X77999Y144800D01*
X79998Y149798D02*
X83997D01*
Y148798D01*
X79998Y144800D01*
Y143800D01*
X194000Y201999D02*
X193001Y202999D01*
X191001D01*
X190002Y201999D01*
Y198001D01*
X191001Y197001D01*
X193001D01*
X194000Y198001D01*
X199998Y202999D02*
X197999Y201999D01*
X196000Y200000D01*
Y198001D01*
X196999Y197001D01*
X198999D01*
X199998Y198001D01*
Y199000D01*
X198999Y200000D01*
X196000D01*
X114499Y177798D02*
X113499Y178798D01*
X111500D01*
X110500Y177798D01*
Y173800D01*
X111500Y172800D01*
X113499D01*
X114499Y173800D01*
X120497Y178798D02*
X116498D01*
Y175799D01*
X118497Y176799D01*
X119497D01*
X120497Y175799D01*
Y173800D01*
X119497Y172800D01*
X117498D01*
X116498Y173800D01*
X114499Y203798D02*
X113499Y204798D01*
X111500D01*
X110500Y203798D01*
Y199800D01*
X111500Y198800D01*
X113499D01*
X114499Y199800D01*
X119497Y198800D02*
Y204798D01*
X116498Y201799D01*
X120497D01*
X158000Y203999D02*
X157001Y204999D01*
X155001D01*
X154002Y203999D01*
Y200001D01*
X155001Y199001D01*
X157001D01*
X158000Y200001D01*
X160000Y203999D02*
X160999Y204999D01*
X162999D01*
X163998Y203999D01*
Y203000D01*
X162999Y202000D01*
X161999D01*
X162999D01*
X163998Y201000D01*
Y200001D01*
X162999Y199001D01*
X160999D01*
X160000Y200001D01*
X78499Y176798D02*
X77499Y177798D01*
X75500D01*
X74500Y176798D01*
Y172800D01*
X75500Y171800D01*
X77499D01*
X78499Y172800D01*
X84497Y171800D02*
X80498D01*
X84497Y175799D01*
Y176798D01*
X83497Y177798D01*
X81498D01*
X80498Y176798D01*
X78499Y203798D02*
X77499Y204798D01*
X75500D01*
X74500Y203798D01*
Y199800D01*
X75500Y198800D01*
X77499D01*
X78499Y199800D01*
X80498Y198800D02*
X82497D01*
X81498D01*
Y204798D01*
X80498Y203798D01*
D13*
X340024Y59705D02*
Y260295D01*
X227780Y59705D02*
X340024D01*
X227780Y260295D02*
X340024D01*
X227780Y59705D02*
Y260295D01*
X271358D01*
X297780D01*
X340024D01*
X227780Y59705D02*
Y260295D01*
X340024Y59705D02*
Y260295D01*
X227780Y59705D02*
X248921D01*
X318567D01*
X340024D01*
D14*
X289000Y380600D02*
Y391400D01*
X314800D01*
Y380600D02*
Y391400D01*
X289000Y380600D02*
X314800D01*
X215000Y318600D02*
X240800D01*
Y329400D01*
X215000D02*
X240800D01*
X215000Y318600D02*
Y329400D01*
X215200Y340600D02*
Y351400D01*
X241000D01*
Y340600D02*
Y351400D01*
X215200Y340600D02*
X241000D01*
X215000Y360600D02*
Y371400D01*
X240800D01*
Y360600D02*
Y371400D01*
X215000Y360600D02*
X240800D01*
X215000Y380600D02*
Y391400D01*
X240800D01*
Y380600D02*
Y391400D01*
X215000Y380600D02*
X240800D01*
X205650Y471000D02*
X222350D01*
X205650D02*
Y511400D01*
X222350D01*
Y471000D02*
Y511400D01*
X289200Y359600D02*
Y370400D01*
X315000D01*
Y359600D02*
Y370400D01*
X289200Y359600D02*
X315000D01*
X170600Y390000D02*
X181400D01*
X170600D02*
Y420500D01*
X181400D01*
Y390000D02*
Y420500D01*
X327400Y422456D02*
Y449056D01*
X316600D02*
X327400D01*
X316600Y422456D02*
Y449056D01*
Y422456D02*
X327400D01*
X305400D02*
Y449056D01*
X294600D02*
X305400D01*
X294600Y422456D02*
Y449056D01*
Y422456D02*
X305400D01*
X289000Y318600D02*
Y329400D01*
X314800D01*
Y318600D02*
Y329400D01*
X289000Y318600D02*
X314800D01*
X289000Y340100D02*
Y350900D01*
X314800D01*
Y340100D02*
Y350900D01*
X289000Y340100D02*
X314800D01*
X161400Y390000D02*
Y420500D01*
X150600D02*
X161400D01*
X150600Y390000D02*
Y420500D01*
Y390000D02*
X161400D01*
X183500Y97250D02*
Y110750D01*
X204500Y97250D02*
Y110750D01*
X183500Y97250D02*
X204500D01*
X183500Y110750D02*
X204500D01*
X148500Y99250D02*
Y112750D01*
X169500Y99250D02*
Y112750D01*
X148500Y99250D02*
X169500D01*
X148500Y112750D02*
X169500D01*
X198350Y471000D02*
Y511400D01*
X181650D02*
X198350D01*
X181650Y471000D02*
Y511400D01*
Y471000D02*
X198350D01*
X127200Y354600D02*
X153000D01*
Y365400D01*
X127200D02*
X153000D01*
X127200Y354600D02*
Y365400D01*
X41500Y355100D02*
X67300D01*
Y365900D01*
X41500D02*
X67300D01*
X41500Y355100D02*
Y365900D01*
X120900Y390500D02*
Y421000D01*
X110100D02*
X120900D01*
X110100Y390500D02*
Y421000D01*
Y390500D02*
X120900D01*
X130600Y390000D02*
X141400D01*
X130600D02*
Y420500D01*
X141400D01*
Y390000D02*
Y420500D01*
X155650Y471000D02*
X172350D01*
X155650D02*
Y511400D01*
X172350D01*
Y471000D02*
Y511400D01*
X148500Y139750D02*
X169500D01*
X148500Y126250D02*
X169500D01*
Y139750D01*
X148500Y126250D02*
Y139750D01*
X246600Y422456D02*
X257400D01*
X246600D02*
Y449056D01*
X257400D01*
Y422456D02*
Y449056D01*
X316600Y488456D02*
X327400D01*
X316600D02*
Y515056D01*
X327400D01*
Y488456D02*
Y515056D01*
X270600Y488456D02*
X281400D01*
X270600D02*
Y515056D01*
X281400D01*
Y488456D02*
Y515056D01*
X270600Y422456D02*
X281400D01*
X270600D02*
Y449056D01*
X281400D01*
Y422456D02*
Y449056D01*
X246600Y488456D02*
X257400D01*
X246600D02*
Y515056D01*
X257400D01*
Y488456D02*
Y515056D01*
X294600Y488456D02*
X305400D01*
X294600D02*
Y515056D01*
X305400D01*
Y488456D02*
Y515056D01*
X146350Y471000D02*
Y511400D01*
X129650D02*
X146350D01*
X129650Y471000D02*
Y511400D01*
Y471000D02*
X146350D01*
X122350D02*
Y511400D01*
X105650D02*
X122350D01*
X105650Y471000D02*
Y511400D01*
Y471000D02*
X122350D01*
X96350D02*
Y511400D01*
X79650D02*
X96350D01*
X79650Y471000D02*
Y511400D01*
Y471000D02*
X96350D01*
X89100Y391000D02*
X99900D01*
X89100D02*
Y421500D01*
X99900D01*
Y391000D02*
Y421500D01*
X67100Y391000D02*
X77900D01*
X67100D02*
Y421500D01*
X77900D01*
Y391000D02*
Y421500D01*
X70350Y471000D02*
Y511400D01*
X53650D02*
X70350D01*
X53650Y471000D02*
Y511400D01*
Y471000D02*
X70350D01*
X47600Y391000D02*
X58400D01*
X47600D02*
Y421500D01*
X58400D01*
Y391000D02*
Y421500D01*
X44350Y471000D02*
Y511400D01*
X27650D02*
X44350D01*
X27650Y471000D02*
Y511400D01*
Y471000D02*
X44350D01*
X30100Y391000D02*
X40900D01*
X30100D02*
Y421500D01*
X40900D01*
Y391000D02*
Y421500D01*
X184500Y124250D02*
Y137750D01*
X205500Y124250D02*
Y137750D01*
X184500Y124250D02*
X205500D01*
X184500Y137750D02*
X205500D01*
X184500Y152750D02*
Y166250D01*
X205500Y152750D02*
Y166250D01*
X184500Y152750D02*
X205500D01*
X184500Y166250D02*
X205500D01*
X148500Y154750D02*
Y168250D01*
X169500Y154750D02*
Y168250D01*
X148500Y154750D02*
X169500D01*
X148500Y168250D02*
X169500D01*
X184000Y179750D02*
Y193250D01*
X205000Y179750D02*
Y193250D01*
X184000Y179750D02*
X205000D01*
X184000Y193250D02*
X205000D01*
X148000Y181750D02*
Y195250D01*
X169000Y181750D02*
Y195250D01*
X148000Y181750D02*
X169000D01*
X148000Y195250D02*
X169000D01*
D15*
X295500Y383500D02*
Y388498D01*
X297999D01*
X298832Y387665D01*
Y385999D01*
X297999Y385166D01*
X295500D01*
X297166D02*
X298832Y383500D01*
X300498Y387665D02*
X301331Y388498D01*
X302998D01*
X303831Y387665D01*
Y386832D01*
X302998Y385999D01*
X302165D01*
X302998D01*
X303831Y385166D01*
Y384333D01*
X302998Y383500D01*
X301331D01*
X300498Y384333D01*
X305497Y388498D02*
Y383500D01*
Y385166D01*
X308829Y388498D01*
X306330Y385999D01*
X308829Y383500D01*
X221500Y321500D02*
Y326498D01*
X223999D01*
X224832Y325665D01*
Y323999D01*
X223999Y323166D01*
X221500D01*
X223166D02*
X224832Y321500D01*
X226498Y325665D02*
X227331Y326498D01*
X228998D01*
X229831Y325665D01*
Y324832D01*
X228998Y323999D01*
X228165D01*
X228998D01*
X229831Y323166D01*
Y322333D01*
X228998Y321500D01*
X227331D01*
X226498Y322333D01*
X231497Y326498D02*
Y321500D01*
Y323166D01*
X234829Y326498D01*
X232330Y323999D01*
X234829Y321500D01*
X221700Y343500D02*
Y348498D01*
X224199D01*
X225032Y347665D01*
Y345999D01*
X224199Y345166D01*
X221700D01*
X223366D02*
X225032Y343500D01*
X226698Y347665D02*
X227531Y348498D01*
X229198D01*
X230031Y347665D01*
Y346832D01*
X229198Y345999D01*
X228364D01*
X229198D01*
X230031Y345166D01*
Y344333D01*
X229198Y343500D01*
X227531D01*
X226698Y344333D01*
X231697Y348498D02*
Y343500D01*
Y345166D01*
X235029Y348498D01*
X232530Y345999D01*
X235029Y343500D01*
X221500Y363500D02*
Y368498D01*
X223999D01*
X224832Y367665D01*
Y365999D01*
X223999Y365166D01*
X221500D01*
X223166D02*
X224832Y363500D01*
X226498Y367665D02*
X227331Y368498D01*
X228998D01*
X229831Y367665D01*
Y366832D01*
X228998Y365999D01*
X228165D01*
X228998D01*
X229831Y365166D01*
Y364333D01*
X228998Y363500D01*
X227331D01*
X226498Y364333D01*
X231497Y368498D02*
Y363500D01*
Y365166D01*
X234829Y368498D01*
X232330Y365999D01*
X234829Y363500D01*
X221500Y383500D02*
Y388498D01*
X223999D01*
X224832Y387665D01*
Y385999D01*
X223999Y385166D01*
X221500D01*
X223166D02*
X224832Y383500D01*
X226498Y387665D02*
X227331Y388498D01*
X228998D01*
X229831Y387665D01*
Y386832D01*
X228998Y385999D01*
X228165D01*
X228998D01*
X229831Y385166D01*
Y384333D01*
X228998Y383500D01*
X227331D01*
X226498Y384333D01*
X231497Y388498D02*
Y383500D01*
Y385166D01*
X234829Y388498D01*
X232330Y385999D01*
X234829Y383500D01*
X295700Y362500D02*
Y367498D01*
X298199D01*
X299032Y366665D01*
Y364999D01*
X298199Y364166D01*
X295700D01*
X297366D02*
X299032Y362500D01*
X300698Y366665D02*
X301531Y367498D01*
X303198D01*
X304031Y366665D01*
Y365832D01*
X303198Y364999D01*
X302364D01*
X303198D01*
X304031Y364166D01*
Y363333D01*
X303198Y362500D01*
X301531D01*
X300698Y363333D01*
X305697Y367498D02*
Y362500D01*
Y364166D01*
X309029Y367498D01*
X306530Y364999D01*
X309029Y362500D01*
X178500Y396500D02*
X173502D01*
Y398999D01*
X174335Y399832D01*
X176001D01*
X176834Y398999D01*
Y396500D01*
Y398166D02*
X178500Y399832D01*
Y401498D02*
Y403164D01*
Y402331D01*
X173502D01*
X174335Y401498D01*
Y405664D02*
X173502Y406497D01*
Y408163D01*
X174335Y408996D01*
X177667D01*
X178500Y408163D01*
Y406497D01*
X177667Y405664D01*
X174335D01*
X173502Y410662D02*
X178500D01*
X176834D01*
X173502Y413994D01*
X176001Y411495D01*
X178500Y413994D01*
X324500Y424512D02*
X319502D01*
Y427011D01*
X320335Y427844D01*
X322001D01*
X322834Y427011D01*
Y424512D01*
Y426178D02*
X324500Y427844D01*
Y429510D02*
Y431176D01*
Y430343D01*
X319502D01*
X320335Y429510D01*
Y433675D02*
X319502Y434509D01*
Y436175D01*
X320335Y437008D01*
X323667D01*
X324500Y436175D01*
Y434509D01*
X323667Y433675D01*
X320335D01*
Y438674D02*
X319502Y439507D01*
Y441173D01*
X320335Y442006D01*
X323667D01*
X324500Y441173D01*
Y439507D01*
X323667Y438674D01*
X320335D01*
X319502Y443672D02*
X324500D01*
X322834D01*
X319502Y447005D01*
X322001Y444505D01*
X324500Y447005D01*
X302500Y424512D02*
X297502D01*
Y427011D01*
X298335Y427844D01*
X300001D01*
X300834Y427011D01*
Y424512D01*
Y426178D02*
X302500Y427844D01*
Y429510D02*
Y431176D01*
Y430343D01*
X297502D01*
X298335Y429510D01*
Y433675D02*
X297502Y434509D01*
Y436175D01*
X298335Y437008D01*
X301667D01*
X302500Y436175D01*
Y434509D01*
X301667Y433675D01*
X298335D01*
Y438674D02*
X297502Y439507D01*
Y441173D01*
X298335Y442006D01*
X301667D01*
X302500Y441173D01*
Y439507D01*
X301667Y438674D01*
X298335D01*
X297502Y443672D02*
X302500D01*
X300834D01*
X297502Y447005D01*
X300001Y444505D01*
X302500Y447005D01*
X295500Y321500D02*
Y326498D01*
X297999D01*
X298832Y325665D01*
Y323999D01*
X297999Y323166D01*
X295500D01*
X297166D02*
X298832Y321500D01*
X300498Y325665D02*
X301331Y326498D01*
X302998D01*
X303831Y325665D01*
Y324832D01*
X302998Y323999D01*
X302165D01*
X302998D01*
X303831Y323166D01*
Y322333D01*
X302998Y321500D01*
X301331D01*
X300498Y322333D01*
X305497Y326498D02*
Y321500D01*
Y323166D01*
X308829Y326498D01*
X306330Y323999D01*
X308829Y321500D01*
X295500Y343000D02*
Y347998D01*
X297999D01*
X298832Y347165D01*
Y345499D01*
X297999Y344666D01*
X295500D01*
X297166D02*
X298832Y343000D01*
X300498Y347165D02*
X301331Y347998D01*
X302998D01*
X303831Y347165D01*
Y346332D01*
X302998Y345499D01*
X302165D01*
X302998D01*
X303831Y344666D01*
Y343833D01*
X302998Y343000D01*
X301331D01*
X300498Y343833D01*
X305497Y347998D02*
Y343000D01*
Y344666D01*
X308829Y347998D01*
X306330Y345499D01*
X308829Y343000D01*
X158500Y396500D02*
X153502D01*
Y398999D01*
X154335Y399832D01*
X156001D01*
X156834Y398999D01*
Y396500D01*
Y398166D02*
X158500Y399832D01*
Y401498D02*
Y403164D01*
Y402331D01*
X153502D01*
X154335Y401498D01*
Y405664D02*
X153502Y406497D01*
Y408163D01*
X154335Y408996D01*
X157667D01*
X158500Y408163D01*
Y406497D01*
X157667Y405664D01*
X154335D01*
X153502Y410662D02*
X158500D01*
X156834D01*
X153502Y413994D01*
X156001Y411495D01*
X158500Y413994D01*
X128700Y357500D02*
Y362498D01*
X131199D01*
X132032Y361665D01*
Y359999D01*
X131199Y359166D01*
X128700D01*
X130366D02*
X132032Y357500D01*
X137031D02*
X133698D01*
X137031Y360832D01*
Y361665D01*
X136198Y362498D01*
X134531D01*
X133698Y361665D01*
X138697Y357500D02*
Y358333D01*
X139530D01*
Y357500D01*
X138697D01*
X146194D02*
X142862D01*
X146194Y360832D01*
Y361665D01*
X145361Y362498D01*
X143695D01*
X142862Y361665D01*
X147861Y362498D02*
Y357500D01*
Y359166D01*
X151193Y362498D01*
X148694Y359999D01*
X151193Y357500D01*
X43000Y358000D02*
Y362998D01*
X45499D01*
X46332Y362165D01*
Y360499D01*
X45499Y359666D01*
X43000D01*
X44666D02*
X46332Y358000D01*
X51331D02*
X47998D01*
X51331Y361332D01*
Y362165D01*
X50498Y362998D01*
X48831D01*
X47998Y362165D01*
X52997Y358000D02*
Y358833D01*
X53830D01*
Y358000D01*
X52997D01*
X60494D02*
X57162D01*
X60494Y361332D01*
Y362165D01*
X59661Y362998D01*
X57995D01*
X57162Y362165D01*
X62160Y362998D02*
Y358000D01*
Y359666D01*
X65493Y362998D01*
X62994Y360499D01*
X65493Y358000D01*
X118000Y397000D02*
X113002D01*
Y399499D01*
X113835Y400332D01*
X115501D01*
X116334Y399499D01*
Y397000D01*
Y398666D02*
X118000Y400332D01*
Y401998D02*
Y403664D01*
Y402831D01*
X113002D01*
X113835Y401998D01*
Y406164D02*
X113002Y406997D01*
Y408663D01*
X113835Y409496D01*
X117167D01*
X118000Y408663D01*
Y406997D01*
X117167Y406164D01*
X113835D01*
X113002Y411162D02*
X118000D01*
X116334D01*
X113002Y414494D01*
X115501Y411995D01*
X118000Y414494D01*
X138500Y396500D02*
X133502D01*
Y398999D01*
X134335Y399832D01*
X136001D01*
X136834Y398999D01*
Y396500D01*
Y398166D02*
X138500Y399832D01*
Y401498D02*
Y403164D01*
Y402331D01*
X133502D01*
X134335Y401498D01*
Y405664D02*
X133502Y406497D01*
Y408163D01*
X134335Y408996D01*
X137667D01*
X138500Y408163D01*
Y406497D01*
X137667Y405664D01*
X134335D01*
X133502Y410662D02*
X138500D01*
X136834D01*
X133502Y413994D01*
X136001Y411495D01*
X138500Y413994D01*
X254500Y424512D02*
X249502D01*
Y427011D01*
X250335Y427844D01*
X252001D01*
X252834Y427011D01*
Y424512D01*
Y426178D02*
X254500Y427844D01*
Y429510D02*
Y431176D01*
Y430343D01*
X249502D01*
X250335Y429510D01*
Y433675D02*
X249502Y434509D01*
Y436175D01*
X250335Y437008D01*
X253667D01*
X254500Y436175D01*
Y434509D01*
X253667Y433675D01*
X250335D01*
Y438674D02*
X249502Y439507D01*
Y441173D01*
X250335Y442006D01*
X253667D01*
X254500Y441173D01*
Y439507D01*
X253667Y438674D01*
X250335D01*
X249502Y443672D02*
X254500D01*
X252834D01*
X249502Y447005D01*
X252001Y444505D01*
X254500Y447005D01*
X324500Y490512D02*
X319502D01*
Y493011D01*
X320335Y493844D01*
X322001D01*
X322834Y493011D01*
Y490512D01*
Y492178D02*
X324500Y493844D01*
Y495510D02*
Y497176D01*
Y496343D01*
X319502D01*
X320335Y495510D01*
Y499676D02*
X319502Y500509D01*
Y502175D01*
X320335Y503008D01*
X323667D01*
X324500Y502175D01*
Y500509D01*
X323667Y499676D01*
X320335D01*
Y504674D02*
X319502Y505507D01*
Y507173D01*
X320335Y508006D01*
X323667D01*
X324500Y507173D01*
Y505507D01*
X323667Y504674D01*
X320335D01*
X319502Y509672D02*
X324500D01*
X322834D01*
X319502Y513004D01*
X322001Y510505D01*
X324500Y513004D01*
X278500Y490512D02*
X273502D01*
Y493011D01*
X274335Y493844D01*
X276001D01*
X276834Y493011D01*
Y490512D01*
Y492178D02*
X278500Y493844D01*
Y495510D02*
Y497176D01*
Y496343D01*
X273502D01*
X274335Y495510D01*
Y499676D02*
X273502Y500509D01*
Y502175D01*
X274335Y503008D01*
X277667D01*
X278500Y502175D01*
Y500509D01*
X277667Y499676D01*
X274335D01*
Y504674D02*
X273502Y505507D01*
Y507173D01*
X274335Y508006D01*
X277667D01*
X278500Y507173D01*
Y505507D01*
X277667Y504674D01*
X274335D01*
X273502Y509672D02*
X278500D01*
X276834D01*
X273502Y513004D01*
X276001Y510505D01*
X278500Y513004D01*
Y424512D02*
X273502D01*
Y427011D01*
X274335Y427844D01*
X276001D01*
X276834Y427011D01*
Y424512D01*
Y426178D02*
X278500Y427844D01*
Y429510D02*
Y431176D01*
Y430343D01*
X273502D01*
X274335Y429510D01*
Y433675D02*
X273502Y434509D01*
Y436175D01*
X274335Y437008D01*
X277667D01*
X278500Y436175D01*
Y434509D01*
X277667Y433675D01*
X274335D01*
Y438674D02*
X273502Y439507D01*
Y441173D01*
X274335Y442006D01*
X277667D01*
X278500Y441173D01*
Y439507D01*
X277667Y438674D01*
X274335D01*
X273502Y443672D02*
X278500D01*
X276834D01*
X273502Y447005D01*
X276001Y444505D01*
X278500Y447005D01*
X254500Y490512D02*
X249502D01*
Y493011D01*
X250335Y493844D01*
X252001D01*
X252834Y493011D01*
Y490512D01*
Y492178D02*
X254500Y493844D01*
Y495510D02*
Y497176D01*
Y496343D01*
X249502D01*
X250335Y495510D01*
Y499676D02*
X249502Y500509D01*
Y502175D01*
X250335Y503008D01*
X253667D01*
X254500Y502175D01*
Y500509D01*
X253667Y499676D01*
X250335D01*
Y504674D02*
X249502Y505507D01*
Y507173D01*
X250335Y508006D01*
X253667D01*
X254500Y507173D01*
Y505507D01*
X253667Y504674D01*
X250335D01*
X249502Y509672D02*
X254500D01*
X252834D01*
X249502Y513004D01*
X252001Y510505D01*
X254500Y513004D01*
X302500Y490512D02*
X297502D01*
Y493011D01*
X298335Y493844D01*
X300001D01*
X300834Y493011D01*
Y490512D01*
Y492178D02*
X302500Y493844D01*
Y495510D02*
Y497176D01*
Y496343D01*
X297502D01*
X298335Y495510D01*
Y499676D02*
X297502Y500509D01*
Y502175D01*
X298335Y503008D01*
X301667D01*
X302500Y502175D01*
Y500509D01*
X301667Y499676D01*
X298335D01*
Y504674D02*
X297502Y505507D01*
Y507173D01*
X298335Y508006D01*
X301667D01*
X302500Y507173D01*
Y505507D01*
X301667Y504674D01*
X298335D01*
X297502Y509672D02*
X302500D01*
X300834D01*
X297502Y513004D01*
X300001Y510505D01*
X302500Y513004D01*
X97000Y397500D02*
X92002D01*
Y399999D01*
X92835Y400832D01*
X94501D01*
X95334Y399999D01*
Y397500D01*
Y399166D02*
X97000Y400832D01*
Y402498D02*
Y404165D01*
Y403331D01*
X92002D01*
X92835Y402498D01*
Y406664D02*
X92002Y407497D01*
Y409163D01*
X92835Y409996D01*
X96167D01*
X97000Y409163D01*
Y407497D01*
X96167Y406664D01*
X92835D01*
X92002Y411662D02*
X97000D01*
X95334D01*
X92002Y414994D01*
X94501Y412495D01*
X97000Y414994D01*
X75000Y397500D02*
X70002D01*
Y399999D01*
X70835Y400832D01*
X72501D01*
X73334Y399999D01*
Y397500D01*
Y399166D02*
X75000Y400832D01*
Y402498D02*
Y404165D01*
Y403331D01*
X70002D01*
X70835Y402498D01*
Y406664D02*
X70002Y407497D01*
Y409163D01*
X70835Y409996D01*
X74167D01*
X75000Y409163D01*
Y407497D01*
X74167Y406664D01*
X70835D01*
X70002Y411662D02*
X75000D01*
X73334D01*
X70002Y414994D01*
X72501Y412495D01*
X75000Y414994D01*
X55500Y397500D02*
X50502D01*
Y399999D01*
X51335Y400832D01*
X53001D01*
X53834Y399999D01*
Y397500D01*
Y399166D02*
X55500Y400832D01*
Y402498D02*
Y404165D01*
Y403331D01*
X50502D01*
X51335Y402498D01*
Y406664D02*
X50502Y407497D01*
Y409163D01*
X51335Y409996D01*
X54667D01*
X55500Y409163D01*
Y407497D01*
X54667Y406664D01*
X51335D01*
X50502Y411662D02*
X55500D01*
X53834D01*
X50502Y414994D01*
X53001Y412495D01*
X55500Y414994D01*
X38000Y397500D02*
X33002D01*
Y399999D01*
X33835Y400832D01*
X35501D01*
X36334Y399999D01*
Y397500D01*
Y399166D02*
X38000Y400832D01*
Y402498D02*
Y404165D01*
Y403331D01*
X33002D01*
X33835Y402498D01*
Y406664D02*
X33002Y407497D01*
Y409163D01*
X33835Y409996D01*
X37167D01*
X38000Y409163D01*
Y407497D01*
X37167Y406664D01*
X33835D01*
X33002Y411662D02*
X38000D01*
X36334D01*
X33002Y414994D01*
X35501Y412495D01*
X38000Y414994D01*
M02*
